FiraSans-CondensedBold.ufo
<glyph name="exclam" format="2">
  <advance width="222"/>
  <unicode hex="0021"/>
  <outline>
    <contour>
      <point x="210" y="696" type="line"/>
      <point x="12" y="696" type="line"/>
      <point x="39" y="267" type="line"/>
      <point x="183" y="267" type="line"/>
    </contour>
    <contour>
      <point x="111" y="181" type="curve" smooth="yes"/>
      <point x="52" y="181"/>
      <point x="13" y="133"/>
      <point x="13" y="80" type="curve" smooth="yes"/>
      <point x="13" y="27"/>
      <point x="52" y="-20"/>
      <point x="111" y="-20" type="curve" smooth="yes"/>
      <point x="170" y="-20"/>
      <point x="209" y="27"/>
      <point x="209" y="80" type="curve" smooth="yes"/>
      <point x="209" y="133"/>
      <point x="170" y="181"/>
    </contour>
  </outline>
</glyph>
<glyph name="parenleft" format="2">
  <advance width="288"/>
  <unicode hex="0028"/>
  <outline>
    <contour>
      <point x="165" y="865" type="line"/>
      <point x="81" y="741"/>
      <point x="0" y="590"/>
      <point x="0" y="350" type="curve" smooth="yes"/>
      <point x="0" y="110"/>
      <point x="81" y="-41"/>
      <point x="165" y="-165" type="curve"/>
      <point x="288" y="-84" type="line"/>
      <point x="209" y="48"/>
      <point x="189" y="169"/>
      <point x="189" y="350" type="curve" smooth="yes"/>
      <point x="189" y="531"/>
      <point x="209" y="652"/>
      <point x="288" y="784" type="curve"/>
    </contour>
  </outline>
</glyph>
<glyph name="parenright" format="2">
  <advance width="288"/>
  <unicode hex="0029"/>
  <outline>
    <contour>
      <point x="122" y="865" type="curve"/>
      <point x="0" y="784" type="line"/>
      <point x="78" y="652"/>
      <point x="99" y="521"/>
      <point x="99" y="350" type="curve" smooth="yes"/>
      <point x="99" y="179"/>
      <point x="78" y="48"/>
      <point x="0" y="-84" type="curve"/>
      <point x="122" y="-165" type="line"/>
      <point x="207" y="-27"/>
      <point x="288" y="110"/>
      <point x="288" y="350" type="curve" smooth="yes"/>
      <point x="288" y="590"/>
      <point x="207" y="727"/>
    </contour>
  </outline>
</glyph>
<glyph name="plus" format="2">
  <advance width="464"/>
  <unicode hex="002B"/>
  <outline>
    <contour>
      <point x="307" y="560" type="line"/>
      <point x="157" y="560" type="line"/>
      <point x="157" y="404" type="line"/>
      <point x="27" y="404" type="line"/>
      <point x="27" y="260" type="line"/>
      <point x="157" y="260" type="line"/>
      <point x="157" y="104" type="line"/>
      <point x="307" y="104" type="line"/>
      <point x="307" y="260" type="line"/>
      <point x="437" y="260" type="line"/>
      <point x="437" y="404" type="line"/>
      <point x="307" y="404" type="line"/>
    </contour>
  </outline>
</glyph>
<glyph name="comma" format="2">
  <advance width="220"/>
  <unicode hex="002C"/>
  <outline>
    <contour>
      <point x="110" y="182" type="curve" smooth="yes"/>
      <point x="55" y="182"/>
      <point x="15" y="139"/>
      <point x="15" y="82" type="curve" smooth="yes"/>
      <point x="15" y="47"/>
      <point x="31" y="18"/>
      <point x="61" y="-3" type="curve"/>
      <point x="22" y="-183" type="line"/>
      <point x="115" y="-183" type="line"/>
      <point x="167" y="-44" type="line" smooth="yes"/>
      <point x="193" y="25"/>
      <point x="205" y="55"/>
      <point x="205" y="83" type="curve" smooth="yes"/>
      <point x="205" y="139"/>
      <point x="166" y="182"/>
    </contour>
  </outline>
</glyph>
<glyph name="hyphen" format="2">
  <advance width="354"/>
  <unicode hex="002D"/>
  <outline>
    <contour>
      <point x="30" y="241" type="line"/>
      <point x="324" y="241" type="line"/>
      <point x="324" y="385" type="line"/>
      <point x="30" y="385" type="line"/>
    </contour>
  </outline>
</glyph>
<glyph name="period" format="2">
  <advance width="226"/>
  <unicode hex="002E"/>
  <outline>
    <contour>
      <point x="113" y="181" type="curve" smooth="yes"/>
      <point x="54" y="181"/>
      <point x="15" y="133"/>
      <point x="15" y="80" type="curve" smooth="yes"/>
      <point x="15" y="27"/>
      <point x="54" y="-20"/>
      <point x="113" y="-20" type="curve" smooth="yes"/>
      <point x="172" y="-20"/>
      <point x="211" y="27"/>
      <point x="211" y="80" type="curve" smooth="yes"/>
      <point x="211" y="133"/>
      <point x="172" y="181"/>
    </contour>
  </outline>
</glyph>
<glyph name="slash" format="2">
  <advance width="426"/>
  <unicode hex="002F"/>
  <outline>
    <contour>
      <point x="233" y="821" type="line"/>
      <point x="31" y="-78" type="line"/>
      <point x="193" y="-116" type="line"/>
      <point x="395" y="783" type="line"/>
    </contour>
  </outline>
</glyph>
<glyph name="seven" format="2">
  <advance width="406"/>
  <unicode hex="0037"/>
  <outline>
    <contour>
      <point x="403" y="680" type="line"/>
      <point x="0" y="680" type="line"/>
      <point x="0" y="540" type="line"/>
      <point x="212" y="540" type="line"/>
      <point x="32" y="36" type="line"/>
      <point x="202" y="-19" type="line"/>
      <point x="403" y="555" type="line"/>
    </contour>
  </outline>
</glyph>
<glyph name="less" format="2">
  <advance width="442"/>
  <unicode hex="003C"/>
  <outline>
    <contour>
      <point x="369" y="583" type="line"/>
      <point x="11" y="408" type="line"/>
      <point x="11" y="258" type="line"/>
      <point x="369" y="83" type="line"/>
      <point x="430" y="213" type="line"/>
      <point x="163" y="333" type="line"/>
      <point x="430" y="460" type="line"/>
    </contour>
  </outline>
</glyph>
<glyph name="greater" format="2">
  <advance width="442"/>
  <unicode hex="003E"/>
  <outline>
    <contour>
      <point x="72" y="583" type="line"/>
      <point x="11" y="460" type="line"/>
      <point x="278" y="333" type="line"/>
      <point x="11" y="213" type="line"/>
      <point x="72" y="83" type="line"/>
      <point x="430" y="258" type="line"/>
      <point x="430" y="408" type="line"/>
    </contour>
  </outline>
</glyph>
<glyph name="E" format="2">
  <advance width="430"/>
  <unicode hex="0045"/>
  <anchor x="222" y="0" name="bottom"/>
  <anchor x="393" y="0" name="ogonek"/>
  <anchor x="226" y="696" name="top"/>
  <anchor x="31" y="696" name="topleft"/>
  <outline>
    <contour>
      <point x="425" y="696" type="line"/>
      <point x="28" y="696" type="line"/>
      <point x="28" y="0" type="line"/>
      <point x="417" y="0" type="line"/>
      <point x="417" y="139" type="line"/>
      <point x="226" y="139" type="line"/>
      <point x="226" y="286" type="line"/>
      <point x="384" y="286" type="line"/>
      <point x="384" y="420" type="line"/>
      <point x="226" y="420" type="line"/>
      <point x="226" y="559" type="line"/>
      <point x="405" y="559" type="line"/>
    </contour>
  </outline>
</glyph>
<glyph name="F" format="2">
  <advance width="405"/>
  <unicode hex="0046"/>
  <anchor x="127" y="0" name="bottom"/>
  <anchor x="227" y="696" name="top"/>
  <outline>
    <contour>
      <point x="28" y="0" type="line"/>
      <point x="226" y="0" type="line"/>
      <point x="226" y="261" type="line"/>
      <point x="371" y="261" type="line"/>
      <point x="371" y="399" type="line"/>
      <point x="226" y="399" type="line"/>
      <point x="226" y="559" type="line"/>
      <point x="390" y="559" type="line"/>
      <point x="410" y="696" type="line"/>
      <point x="28" y="696" type="line"/>
    </contour>
  </outline>
</glyph>
<glyph name="H" format="2">
  <advance width="548"/>
  <unicode hex="0048"/>
  <anchor x="275" y="0" name="bottom"/>
  <anchor x="528" y="0" name="bottomright"/>
  <anchor x="275" y="348" name="center"/>
  <anchor x="275" y="696" name="top"/>
  <anchor x="31" y="695" name="topleft"/>
  <outline>
    <contour>
      <point x="322" y="0" type="line"/>
      <point x="520" y="0" type="line"/>
      <point x="520" y="696" type="line"/>
      <point x="322" y="696" type="line"/>
      <point x="322" y="436" type="line"/>
      <point x="226" y="436" type="line"/>
      <point x="226" y="696" type="line"/>
      <point x="28" y="696" type="line"/>
      <point x="28" y="0" type="line"/>
      <point x="226" y="0" type="line"/>
      <point x="226" y="284" type="line"/>
      <point x="322" y="284" type="line"/>
    </contour>
  </outline>
</glyph>
<glyph name="J" format="2">
  <advance width="277"/>
  <unicode hex="004A"/>
  <anchor x="134" y="-214" name="bottom"/>
  <anchor x="151" y="696" name="top"/>
  <outline>
    <contour>
      <point x="250" y="696" type="line"/>
      <point x="52" y="696" type="line"/>
      <point x="52" y="117" type="line" smooth="yes"/>
      <point x="52" y="29"/>
      <point x="47" y="-12"/>
      <point x="-25" y="-46" type="curve"/>
      <point x="28" y="-185" type="line"/>
      <point x="130" y="-145"/>
      <point x="250" y="-80"/>
      <point x="250" y="110" type="curve" smooth="yes"/>
    </contour>
  </outline>
</glyph>
<glyph name="K" format="2">
  <advance width="568"/>
  <unicode hex="004B"/>
  <anchor x="282" y="0" name="bottom"/>
  <anchor x="279" y="696" name="top"/>
  <outline>
    <contour>
      <point x="573" y="696" type="line"/>
      <point x="382" y="696" type="line"/>
      <point x="231" y="371" type="line"/>
      <point x="375" y="0" type="line"/>
      <point x="588" y="0" type="line"/>
      <point x="425" y="386" type="line"/>
    </contour>
    <contour>
      <point x="226" y="696" type="line"/>
      <point x="28" y="696" type="line"/>
      <point x="28" y="0" type="line"/>
      <point x="226" y="0" type="line"/>
    </contour>
  </outline>
</glyph>
<glyph name="L" format="2">
  <advance width="438"/>
  <unicode hex="004C"/>
  <anchor x="222" y="0" name="bottom"/>
  <anchor x="341" y="403" name="center"/>
  <anchor x="127" y="696" name="top"/>
  <anchor x="231" y="696" name="topright"/>
  <outline>
    <contour>
      <point x="226" y="696" type="line"/>
      <point x="28" y="696" type="line"/>
      <point x="28" y="0" type="line"/>
      <point x="416" y="0" type="line"/>
      <point x="436" y="152" type="line"/>
      <point x="226" y="152" type="line"/>
    </contour>
  </outline>
</glyph>
<glyph name="N" format="2">
  <advance width="541"/>
  <unicode hex="004E"/>
  <anchor x="270" y="0" name="bottom"/>
  <anchor x="268" y="696" name="top"/>
  <outline>
    <contour>
      <point x="513" y="696" type="line"/>
      <point x="346" y="696" type="line"/>
      <point x="346" y="461" type="line" smooth="yes"/>
      <point x="346" y="338"/>
      <point x="360" y="256"/>
      <point x="373" y="170" type="curve"/>
      <point x="266" y="696" type="line"/>
      <point x="28" y="696" type="line"/>
      <point x="28" y="0" type="line"/>
      <point x="194" y="0" type="line"/>
      <point x="194" y="224" type="line" smooth="yes"/>
      <point x="194" y="352"/>
      <point x="178" y="449"/>
      <point x="169" y="525" type="curve"/>
      <point x="274" y="0" type="line"/>
      <point x="513" y="0" type="line"/>
    </contour>
  </outline>
</glyph>
<glyph name="R" format="2">
  <advance width="527"/>
  <unicode hex="0052"/>
  <anchor x="264" y="0" name="bottom"/>
  <anchor x="267" y="696" name="top"/>
  <outline>
    <contour>
      <point x="241" y="696" type="curve" smooth="yes"/>
      <point x="28" y="696" type="line"/>
      <point x="28" y="0" type="line"/>
      <point x="226" y="0" type="line"/>
      <point x="226" y="561" type="line"/>
      <point x="241" y="561" type="line" smooth="yes"/>
      <point x="288" y="561"/>
      <point x="311" y="535"/>
      <point x="311" y="476" type="curve" smooth="yes"/>
      <point x="311" y="413"/>
      <point x="295" y="384"/>
      <point x="244" y="384" type="curve" smooth="yes"/>
      <point x="213" y="384" type="line"/>
      <point x="213" y="251" type="line"/>
      <point x="340" y="251" type="line"/>
      <point x="467" y="311"/>
      <point x="511" y="366"/>
      <point x="511" y="476" type="curve" smooth="yes"/>
      <point x="511" y="619"/>
      <point x="427" y="696"/>
    </contour>
    <contour>
      <point x="410" y="301" type="line"/>
      <point x="238" y="265" type="line"/>
      <point x="344" y="0" type="line"/>
      <point x="552" y="0" type="line"/>
    </contour>
  </outline>
</glyph>
<glyph name="U" format="2">
  <advance width="535"/>
  <unicode hex="0055"/>
  <anchor x="267" y="0" name="bottom"/>
  <anchor x="391" y="0" name="ogonek"/>
  <anchor x="267" y="696" name="top"/>
  <anchor x="525" y="696" name="topright"/>
  <outline>
    <contour>
      <point x="517" y="696" type="line"/>
      <point x="319" y="696" type="line"/>
      <point x="319" y="221" type="line" smooth="yes"/>
      <point x="319" y="152"/>
      <point x="307" y="123"/>
      <point x="268" y="123" type="curve" smooth="yes"/>
      <point x="228" y="123"/>
      <point x="216" y="152"/>
      <point x="216" y="221" type="curve" smooth="yes"/>
      <point x="216" y="696" type="line"/>
      <point x="18" y="696" type="line"/>
      <point x="18" y="215" type="line" smooth="yes"/>
      <point x="18" y="74"/>
      <point x="97" y="-19"/>
      <point x="268" y="-19" type="curve" smooth="yes"/>
      <point x="439" y="-19"/>
      <point x="517" y="83"/>
      <point x="517" y="215" type="curve" smooth="yes"/>
    </contour>
  </outline>
</glyph>
<glyph name="V" format="2">
  <advance width="498"/>
  <unicode hex="0056"/>
  <anchor x="249" y="0" name="bottom"/>
  <anchor x="249" y="696" name="top"/>
  <outline>
    <contour>
      <point x="518" y="696" type="line"/>
      <point x="325" y="696" type="line"/>
      <point x="257" y="140" type="line"/>
      <point x="178" y="696" type="line"/>
      <point x="-20" y="696" type="line"/>
      <point x="124" y="0" type="line"/>
      <point x="385" y="0" type="line"/>
    </contour>
  </outline>
</glyph>
<glyph name="bracketleft" format="2">
  <advance width="275"/>
  <unicode hex="005B"/>
  <outline>
    <contour>
      <point x="275" y="826" type="line"/>
      <point x="5" y="826" type="line"/>
      <point x="5" y="-126" type="line"/>
      <point x="275" y="-126" type="line"/>
      <point x="275" y="9" type="line"/>
      <point x="182" y="9" type="line"/>
      <point x="182" y="690" type="line"/>
      <point x="275" y="690" type="line"/>
    </contour>
  </outline>
</glyph>
<glyph name="backslash" format="2">
  <advance width="426"/>
  <unicode hex="005C"/>
  <outline>
    <contour>
      <point x="193" y="821" type="line"/>
      <point x="31" y="783" type="line"/>
      <point x="233" y="-116" type="line"/>
      <point x="395" y="-78" type="line"/>
    </contour>
  </outline>
</glyph>
<glyph name="bracketright" format="2">
  <advance width="275"/>
  <unicode hex="005D"/>
  <outline>
    <contour>
      <point x="270" y="826" type="line"/>
      <point x="0" y="826" type="line"/>
      <point x="0" y="691" type="line"/>
      <point x="93" y="691" type="line"/>
      <point x="93" y="10" type="line"/>
      <point x="0" y="10" type="line"/>
      <point x="0" y="-126" type="line"/>
      <point x="270" y="-126" type="line"/>
    </contour>
  </outline>
</glyph>
<glyph name="asciicircum" format="2">
  <advance width="485"/>
  <unicode hex="005E"/>
  <outline>
    <contour>
      <point x="330" y="846" type="line"/>
      <point x="155" y="846" type="line"/>
      <point x="0" y="527" type="line"/>
      <point x="182" y="527" type="line"/>
      <point x="241" y="709" type="line"/>
      <point x="306" y="527" type="line"/>
      <point x="485" y="527" type="line"/>
    </contour>
  </outline>
</glyph>
<glyph name="b" format="2">
  <advance width="505"/>
  <unicode hex="0062"/>
  <anchor x="259" y="0" name="bottom"/>
  <anchor x="273" y="744" name="top"/>
  <outline>
    <contour>
      <point x="333" y="554" type="curve" smooth="yes"/>
      <point x="439" y="554"/>
      <point x="491" y="456"/>
      <point x="491" y="266" type="curve" smooth="yes"/>
      <point x="491" y="92"/>
      <point x="426" y="-20"/>
      <point x="314" y="-20" type="curve" smooth="yes"/>
      <point x="260" y="-20"/>
      <point x="218" y="11"/>
      <point x="194" y="61" type="curve"/>
      <point x="210" y="165" type="line"/>
      <point x="220" y="135"/>
      <point x="235" y="115"/>
      <point x="254" y="115" type="curve" smooth="yes"/>
      <point x="280" y="115"/>
      <point x="298" y="140"/>
      <point x="298" y="266" type="curve" smooth="yes"/>
      <point x="298" y="404"/>
      <point x="280" y="417"/>
      <point x="262" y="417" type="curve" smooth="yes"/>
      <point x="245" y="417"/>
      <point x="224" y="395"/>
      <point x="207" y="353" type="curve"/>
      <point x="207" y="475" type="line"/>
      <point x="230" y="523"/>
      <point x="278" y="554"/>
    </contour>
    <contour>
      <point x="217" y="764" type="line"/>
      <point x="217" y="135" type="line"/>
      <point x="196" y="0" type="line"/>
      <point x="27" y="0" type="line"/>
      <point x="27" y="744" type="line"/>
    </contour>
  </outline>
</glyph>
<glyph name="v" format="2">
  <advance width="448"/>
  <unicode hex="0076"/>
  <anchor x="226" y="0" name="bottom"/>
  <anchor x="231" y="534" name="top"/>
  <outline>
    <contour>
      <point x="463" y="534" type="line"/>
      <point x="280" y="534" type="line"/>
      <point x="226" y="138" type="line"/>
      <point x="179" y="534" type="line"/>
      <point x="-15" y="534" type="line"/>
      <point x="114" y="0" type="line"/>
      <point x="338" y="0" type="line"/>
    </contour>
  </outline>
</glyph>
<glyph name="w" format="2">
  <advance width="658"/>
  <unicode hex="0077"/>
  <anchor x="330" y="0" name="bottom"/>
  <anchor x="329" y="534" name="top"/>
  <outline>
    <contour>
      <point x="661" y="534" type="line"/>
      <point x="484" y="534" type="line"/>
      <point x="460" y="144" type="line"/>
      <point x="415" y="534" type="line"/>
      <point x="248" y="534" type="line"/>
      <point x="199" y="144" type="line"/>
      <point x="179" y="534" type="line"/>
      <point x="-3" y="534" type="line"/>
      <point x="81" y="0" type="line"/>
      <point x="293" y="0" type="line"/>
      <point x="329" y="364" type="line"/>
      <point x="366" y="0" type="line"/>
      <point x="579" y="0" type="line"/>
    </contour>
  </outline>
</glyph>
<glyph name="y" format="2">
  <advance width="457"/>
  <unicode hex="0079"/>
  <anchor x="222" y="-214" name="bottom"/>
  <anchor x="228" y="534" name="top"/>
  <outline>
    <contour>
      <point x="472" y="534" type="line"/>
      <point x="286" y="534" type="line"/>
      <point x="222" y="117" type="line"/>
      <point x="176" y="534" type="line"/>
      <point x="-15" y="534" type="line"/>
      <point x="103" y="0" type="line"/>
      <point x="174" y="0" type="line"/>
      <point x="151" y="-65"/>
      <point x="107" y="-89"/>
      <point x="25" y="-100" type="curve"/>
      <point x="45" y="-227" type="line"/>
      <point x="201" y="-221"/>
      <point x="303" y="-145"/>
      <point x="339" y="1" type="curve" smooth="yes"/>
    </contour>
  </outline>
</glyph>
<glyph name="z" format="2">
  <advance width="400"/>
  <unicode hex="007A"/>
  <anchor x="193" y="0" name="bottom"/>
  <anchor x="207" y="534" name="top"/>
  <outline>
    <contour>
      <point x="391" y="534" type="line"/>
      <point x="19" y="534" type="line"/>
      <point x="19" y="395" type="line"/>
      <point x="183" y="395" type="line"/>
      <point x="3" y="133" type="line"/>
      <point x="3" y="0" type="line"/>
      <point x="382" y="0" type="line"/>
      <point x="397" y="141" type="line"/>
      <point x="211" y="141" type="line"/>
      <point x="391" y="403" type="line"/>
    </contour>
  </outline>
</glyph>
<glyph name="bar" format="2">
  <advance width="283"/>
  <unicode hex="007C"/>
  <outline>
    <contour>
      <point x="231" y="812" type="line"/>
      <point x="52" y="812" type="line"/>
      <point x="52" y="-107" type="line"/>
      <point x="231" y="-107" type="line"/>
    </contour>
  </outline>
</glyph>
<glyph name="asciitilde" format="2">
  <advance width="463"/>
  <unicode hex="007E"/>
  <outline>
    <contour>
      <point x="307" y="228" type="curve" smooth="yes"/>
      <point x="382" y="228"/>
      <point x="425" y="293"/>
      <point x="458" y="364" type="curve"/>
      <point x="365" y="410" type="line"/>
      <point x="348" y="385"/>
      <point x="334" y="363"/>
      <point x="307" y="363" type="curve" smooth="yes"/>
      <point x="263" y="363"/>
      <point x="233" y="418"/>
      <point x="158" y="418" type="curve" smooth="yes"/>
      <point x="81" y="418"/>
      <point x="38" y="353"/>
      <point x="5" y="281" type="curve"/>
      <point x="95" y="234" type="line"/>
      <point x="112" y="260"/>
      <point x="126" y="283"/>
      <point x="154" y="283" type="curve" smooth="yes"/>
      <point x="200" y="283"/>
      <point x="230" y="228"/>
    </contour>
  </outline>
</glyph>
<glyph name="exclamdown" format="2">
  <advance width="222"/>
  <unicode hex="00A1"/>
  <outline>
    <contour>
      <point x="183" y="229" type="line"/>
      <point x="39" y="229" type="line"/>
      <point x="12" y="-215" type="line"/>
      <point x="210" y="-215" type="line"/>
    </contour>
    <contour>
      <point x="111" y="516" type="curve" smooth="yes"/>
      <point x="52" y="516"/>
      <point x="13" y="469"/>
      <point x="13" y="416" type="curve" smooth="yes"/>
      <point x="13" y="363"/>
      <point x="52" y="315"/>
      <point x="111" y="315" type="curve" smooth="yes"/>
      <point x="170" y="315"/>
      <point x="209" y="363"/>
      <point x="209" y="416" type="curve" smooth="yes"/>
      <point x="209" y="469"/>
      <point x="170" y="516"/>
    </contour>
  </outline>
</glyph>
<glyph name="cent" format="2">
  <advance width="407"/>
  <unicode hex="00A2"/>
  <anchor x="236" y="0" name="bottom"/>
  <anchor x="251" y="534" name="top"/>
  <outline>
    <contour>
      <point x="299" y="696" type="line"/>
      <point x="175" y="696" type="line"/>
      <point x="175" y="535" type="line"/>
      <point x="299" y="538" type="line"/>
    </contour>
    <contour>
      <point x="174" y="-1" type="line"/>
      <point x="174" y="-165" type="line"/>
      <point x="299" y="-165" type="line"/>
      <point x="299" y="-5" type="line"/>
    </contour>
    <component base="c"/>
  </outline>
</glyph>
<glyph name="brokenbar" format="2">
  <advance width="283"/>
  <unicode hex="00A6"/>
  <outline>
    <contour>
      <point x="231" y="812" type="line"/>
      <point x="52" y="812" type="line"/>
      <point x="52" y="443" type="line"/>
      <point x="231" y="443" type="line"/>
    </contour>
    <contour>
      <point x="231" y="262" type="line"/>
      <point x="52" y="262" type="line"/>
      <point x="52" y="-107" type="line"/>
      <point x="231" y="-107" type="line"/>
    </contour>
  </outline>
</glyph>
<glyph name="logicalnot" format="2">
  <advance width="464"/>
  <unicode hex="00AC"/>
  <outline>
    <contour>
      <point x="437" y="401" type="line"/>
      <point x="27" y="401" type="line"/>
      <point x="27" y="261" type="line"/>
      <point x="286" y="261" type="line"/>
      <point x="286" y="100" type="line"/>
      <point x="437" y="100" type="line"/>
    </contour>
  </outline>
</glyph>
<glyph name="Eth" format="2">
  <advance width="577"/>
  <unicode hex="00D0"/>
  <anchor x="283" y="0" name="bottom"/>
  <anchor x="297" y="348" name="center"/>
  <anchor x="262" y="696" name="top"/>
  <outline>
    <contour>
      <point x="311" y="409" type="line"/>
      <point x="39" y="409" type="line"/>
      <point x="10" y="409" type="line"/>
      <point x="10" y="297" type="line"/>
      <point x="311" y="297" type="line"/>
    </contour>
    <component base="D" xOffset="19"/>
  </outline>
</glyph>
<glyph name="multiply" format="2">
  <advance width="443"/>
  <unicode hex="00D7"/>
  <outline>
    <contour>
      <point x="314" y="522" type="line"/>
      <point x="221" y="398" type="line"/>
      <point x="129" y="522" type="line"/>
      <point x="19" y="435" type="line"/>
      <point x="125" y="306" type="line"/>
      <point x="19" y="176" type="line"/>
      <point x="129" y="90" type="line"/>
      <point x="221" y="215" type="line"/>
      <point x="314" y="90" type="line"/>
      <point x="424" y="176" type="line"/>
      <point x="318" y="306" type="line"/>
      <point x="424" y="435" type="line"/>
    </contour>
  </outline>
</glyph>
<glyph name="circumflexcomb" format="2">
  <unicode hex="0302"/>
  <anchor x="207" y="534" name="_top"/>
  <anchor x="209" y="836" name="top"/>
  <outline>
    <contour>
      <point x="92" y="619" type="line"/>
      <point x="207" y="714" type="line"/>
      <point x="322" y="619" type="line"/>
      <point x="384" y="683" type="line"/>
      <point x="263" y="836" type="line"/>
      <point x="152" y="836" type="line"/>
      <point x="30" y="683" type="line"/>
    </contour>
  </outline>
</glyph>
<glyph name="macroncomb" format="2">
  <unicode hex="0304"/>
  <anchor x="170" y="534" name="_top"/>
  <anchor x="170" y="749" name="top"/>
  <outline>
    <contour>
      <point x="310" y="651" type="line"/>
      <point x="310" y="777" type="line"/>
      <point x="30" y="777" type="line"/>
      <point x="30" y="651" type="line"/>
    </contour>
  </outline>
</glyph>
<glyph name="Delta" format="2">
  <advance width="523"/>
  <unicode hex="0394"/>
  <anchor x="262" y="0" name="bottom"/>
  <anchor x="262" y="696" name="top"/>
  <outline>
    <contour>
      <point x="260" y="555" type="line"/>
      <point x="316" y="141" type="line"/>
      <point x="204" y="141" type="line"/>
    </contour>
    <contour>
      <point x="379" y="696" type="line"/>
      <point x="145" y="696" type="line"/>
      <point x="-20" y="0" type="line"/>
      <point x="543" y="0" type="line"/>
    </contour>
  </outline>
</glyph>
<glyph name="figuredash" format="2">
  <advance width="460"/>
  <unicode hex="2012"/>
  <outline>
    <contour>
      <point x="5" y="261" type="line"/>
      <point x="455" y="261" type="line"/>
      <point x="455" y="405" type="line"/>
      <point x="5" y="405" type="line"/>
    </contour>
  </outline>
</glyph>
<glyph name="endash" format="2">
  <advance width="441"/>
  <unicode hex="2013"/>
  <outline>
    <contour>
      <point x="15" y="241" type="line"/>
      <point x="426" y="241" type="line"/>
      <point x="426" y="385" type="line"/>
      <point x="15" y="385" type="line"/>
    </contour>
  </outline>
</glyph>
<glyph name="emdash" format="2">
  <advance width="673"/>
  <unicode hex="2014"/>
  <outline>
    <contour>
      <point x="15" y="241" type="line"/>
      <point x="658" y="241" type="line"/>
      <point x="658" y="385" type="line"/>
      <point x="15" y="385" type="line"/>
    </contour>
  </outline>
</glyph>
<glyph name="dagger" format="2">
  <advance width="460"/>
  <unicode hex="2020"/>
  <outline>
    <contour>
      <point x="318" y="680" type="line"/>
      <point x="142" y="680" type="line"/>
      <point x="142" y="544" type="line"/>
      <point x="10" y="544" type="line"/>
      <point x="10" y="392" type="line"/>
      <point x="142" y="392" type="line"/>
      <point x="142" y="0" type="line"/>
      <point x="318" y="0" type="line"/>
      <point x="318" y="392" type="line"/>
      <point x="450" y="392" type="line"/>
      <point x="450" y="544" type="line"/>
      <point x="318" y="544" type="line"/>
    </contour>
  </outline>
</glyph>
<glyph name="daggerdbl" format="2">
  <advance width="461"/>
  <unicode hex="2021"/>
  <outline>
    <contour>
      <point x="450" y="291" type="line"/>
      <point x="10" y="291" type="line"/>
      <point x="10" y="138" type="line"/>
      <point x="450" y="138" type="line"/>
    </contour>
    <component base="dagger" xOffset="1"/>
  </outline>
</glyph>
<glyph name="bullet" format="2">
  <advance width="334"/>
  <unicode hex="2022"/>
  <outline>
    <contour>
      <point x="167" y="492" type="curve" smooth="yes"/>
      <point x="80" y="492"/>
      <point x="20" y="428"/>
      <point x="20" y="342" type="curve" smooth="yes"/>
      <point x="20" y="257"/>
      <point x="80" y="191"/>
      <point x="167" y="191" type="curve" smooth="yes"/>
      <point x="255" y="191"/>
      <point x="314" y="255"/>
      <point x="314" y="341" type="curve" smooth="yes"/>
      <point x="314" y="427"/>
      <point x="255" y="492"/>
    </contour>
  </outline>
</glyph>
<glyph name="guilsinglleft" format="2">
  <advance width="327"/>
  <unicode hex="2039"/>
  <outline>
    <contour>
      <point x="188" y="566" type="line"/>
      <point x="20" y="342" type="line"/>
      <point x="20" y="224" type="line"/>
      <point x="188" y="0" type="line"/>
      <point x="307" y="78" type="line"/>
      <point x="202" y="283" type="line"/>
      <point x="307" y="489" type="line"/>
    </contour>
  </outline>
</glyph>
<glyph name="guilsinglright" format="2">
  <advance width="327"/>
  <unicode hex="203A"/>
  <outline>
    <contour>
      <point x="139" y="566" type="line"/>
      <point x="20" y="489" type="line"/>
      <point x="125" y="283" type="line"/>
      <point x="20" y="78" type="line"/>
      <point x="139" y="0" type="line"/>
      <point x="307" y="224" type="line"/>
      <point x="307" y="342" type="line"/>
    </contour>
  </outline>
</glyph>
<glyph name="fraction" format="2">
  <advance width="172"/>
  <unicode hex="2044"/>
  <outline>
    <contour>
      <point x="201" y="763" type="line"/>
      <point x="-137" y="-43" type="line"/>
      <point x="-30" y="-89" type="line"/>
      <point x="309" y="717" type="line"/>
    </contour>
  </outline>
</glyph>
<glyph name="product" format="2">
  <advance width="503"/>
  <unicode hex="220F"/>
  <outline>
    <contour>
      <point x="502" y="541" type="line"/>
      <point x="502" y="680" type="line"/>
      <point x="1" y="680" type="line"/>
      <point x="1" y="541" type="line"/>
      <point x="50" y="541" type="line"/>
      <point x="50" y="-226" type="line"/>
      <point x="220" y="-207" type="line"/>
      <point x="220" y="541" type="line"/>
      <point x="284" y="541" type="line"/>
      <point x="284" y="-226" type="line"/>
      <point x="454" y="-207" type="line"/>
      <point x="454" y="541" type="line"/>
    </contour>
  </outline>
</glyph>
<glyph name="summation" format="2">
  <advance width="444"/>
  <unicode hex="2211"/>
  <outline>
    <contour>
      <point x="435" y="680" type="line"/>
      <point x="9" y="680" type="line"/>
      <point x="9" y="549" type="line"/>
      <point x="169" y="339" type="line"/>
      <point x="9" y="132" type="line"/>
      <point x="9" y="0" type="line"/>
      <point x="435" y="0" type="line"/>
      <point x="435" y="139" type="line"/>
      <point x="204" y="139" type="line"/>
      <point x="331" y="307" type="line"/>
      <point x="331" y="375" type="line"/>
      <point x="204" y="541" type="line"/>
      <point x="435" y="541" type="line"/>
    </contour>
  </outline>
</glyph>
<glyph name="minus" format="2">
  <advance width="442"/>
  <unicode hex="2212"/>
  <outline>
    <contour>
      <point x="27" y="262" type="line"/>
      <point x="415" y="262" type="line"/>
      <point x="415" y="402" type="line"/>
      <point x="27" y="402" type="line"/>
    </contour>
  </outline>
</glyph>
<glyph name="radical" format="2">
  <advance width="460"/>
  <unicode hex="221A"/>
  <outline>
    <contour>
      <point x="667" y="895" type="line"/>
      <point x="360" y="895" type="line"/>
      <point x="224" y="164" type="line"/>
      <point x="159" y="504" type="line"/>
      <point x="-16" y="463" type="line"/>
      <point x="123" y="0" type="line"/>
      <point x="343" y="0" type="line"/>
      <point x="507" y="754" type="line"/>
      <point x="667" y="754" type="line"/>
    </contour>
  </outline>
</glyph>
<glyph name="notequal" format="2">
  <advance width="442"/>
  <unicode hex="2260"/>
  <outline>
    <contour>
      <point x="322" y="639" type="line"/>
      <point x="29" y="67" type="line"/>
      <point x="120" y="20" type="line"/>
      <point x="413" y="592" type="line"/>
    </contour>
    <component base="equal"/>
  </outline>
</glyph>
<glyph name="acute.loclPLK" format="2">
  <advance width="268"/>
  <anchor x="107" y="533" name="_top"/>
  <outline>
    <contour>
      <point x="101" y="825" type="line"/>
      <point x="30" y="630" type="line"/>
      <point x="112" y="583" type="line"/>
      <point x="238" y="749" type="line"/>
    </contour>
  </outline>
</glyph>
<glyph name="acute.sc.loclPLK" format="2">
  <advance width="268"/>
  <anchor x="102" y="570" name="_top"/>
  <outline>
    <contour>
      <point x="101" y="872" type="line"/>
      <point x="30" y="677" type="line"/>
      <point x="112" y="630" type="line"/>
      <point x="238" y="796" type="line"/>
    </contour>
  </outline>
</glyph>
<glyph name="acutecomb.case" format="2">
  <anchor x="163" y="696" name="_top"/>
  <anchor x="165" y="978" name="top"/>
  <outline>
    <contour>
      <point x="224" y="968" type="line"/>
      <point x="30" y="839" type="line"/>
      <point x="78" y="749" type="line"/>
      <point x="294" y="837" type="line"/>
    </contour>
  </outline>
</glyph>
<glyph name="c.sc" format="2">
  <advance width="443"/>
  <anchor x="254" y="0" name="bottom"/>
  <anchor x="274" y="571" name="top"/>
  <outline>
    <contour>
      <point x="266" y="587" type="curve" smooth="yes"/>
      <point x="119" y="587"/>
      <point x="17" y="485"/>
      <point x="17" y="288" type="curve" smooth="yes"/>
      <point x="17" y="77"/>
      <point x="125" y="-18"/>
      <point x="259" y="-18" type="curve" smooth="yes"/>
      <point x="344" y="-18"/>
      <point x="405" y="19"/>
      <point x="448" y="64" type="curve"/>
      <point x="365" y="165" type="line"/>
      <point x="335" y="138"/>
      <point x="312" y="122"/>
      <point x="280" y="122" type="curve" smooth="yes"/>
      <point x="234" y="122"/>
      <point x="212" y="156"/>
      <point x="212" y="288" type="curve" smooth="yes"/>
      <point x="212" y="404"/>
      <point x="231" y="453"/>
      <point x="280" y="453" type="curve" smooth="yes"/>
      <point x="311" y="453"/>
      <point x="330" y="440"/>
      <point x="359" y="416" type="curve"/>
      <point x="442" y="517" type="line"/>
      <point x="395" y="560"/>
      <point x="338" y="587"/>
    </contour>
  </outline>
</glyph>
<glyph name="cedilla.case.ALT" format="2">
  <advance width="301"/>
  <anchor x="142" y="0" name="_bottom"/>
  <outline>
    <contour>
      <point x="187" y="16" type="line"/>
      <point x="90" y="16" type="line"/>
      <point x="75" y="-118" type="line"/>
      <point x="128" y="-118"/>
      <point x="153" y="-126"/>
      <point x="153" y="-148" type="curve" smooth="yes"/>
      <point x="153" y="-167"/>
      <point x="141" y="-174"/>
      <point x="118" y="-174" type="curve" smooth="yes"/>
      <point x="99" y="-174"/>
      <point x="82" y="-167"/>
      <point x="65" y="-156" type="curve"/>
      <point x="25" y="-239" type="line"/>
      <point x="50" y="-257"/>
      <point x="90" y="-272"/>
      <point x="136" y="-272" type="curve" smooth="yes"/>
      <point x="232" y="-272"/>
      <point x="281" y="-219"/>
      <point x="281" y="-150" type="curve" smooth="yes"/>
      <point x="281" y="-90"/>
      <point x="248" y="-53"/>
      <point x="187" y="-44" type="curve"/>
    </contour>
  </outline>
</glyph>
<glyph name="dagger.tf" format="2">
  <advance width="460"/>
  <outline>
    <contour>
      <point x="319" y="696" type="line"/>
      <point x="143" y="696" type="line"/>
      <point x="143" y="560" type="line"/>
      <point x="7" y="560" type="line"/>
      <point x="7" y="407" type="line"/>
      <point x="143" y="407" type="line"/>
      <point x="143" y="0" type="line"/>
      <point x="319" y="0" type="line"/>
      <point x="319" y="407" type="line"/>
      <point x="454" y="407" type="line"/>
      <point x="454" y="560" type="line"/>
      <point x="319" y="560" type="line"/>
    </contour>
  </outline>
</glyph>
<glyph name="daggerdbl.tf" format="2">
  <advance width="460"/>
  <outline>
    <contour>
      <point x="447" y="293" type="line"/>
      <point x="12" y="293" type="line"/>
      <point x="12" y="140" type="line"/>
      <point x="447" y="140" type="line"/>
    </contour>
    <component base="dagger.tf" xOffset="-1"/>
  </outline>
</glyph>
<glyph name="e.sc" format="2">
  <advance width="383"/>
  <anchor x="195" y="0" name="bottom"/>
  <anchor x="342" y="0" name="ogonek"/>
  <anchor x="198" y="571" name="top"/>
  <outline>
    <contour>
      <point x="377" y="571" type="line"/>
      <point x="20" y="571" type="line"/>
      <point x="20" y="0" type="line"/>
      <point x="368" y="0" type="line"/>
      <point x="368" y="130" type="line"/>
      <point x="209" y="130" type="line"/>
      <point x="209" y="228" type="line"/>
      <point x="341" y="228" type="line"/>
      <point x="341" y="354" type="line"/>
      <point x="209" y="354" type="line"/>
      <point x="209" y="442" type="line"/>
      <point x="358" y="442" type="line"/>
    </contour>
  </outline>
</glyph>
<glyph name="eth.sc" format="2">
  <advance width="524"/>
  <anchor x="264" y="0" name="bottom"/>
  <anchor x="273" y="286" name="center"/>
  <anchor x="240" y="571" name="top"/>
  <outline>
    <contour>
      <point x="8" y="243" type="line"/>
      <point x="283" y="243" type="line"/>
      <point x="283" y="343" type="line"/>
      <point x="47" y="343" type="line"/>
      <point x="8" y="343" type="line"/>
    </contour>
    <component base="d.sc" xOffset="19"/>
  </outline>
</glyph>
<glyph name="f.sc" format="2">
  <advance width="371"/>
  <anchor x="123" y="0" name="bottom"/>
  <anchor x="202" y="571" name="top"/>
  <outline>
    <contour>
      <point x="376" y="571" type="line" smooth="yes"/>
      <point x="28" y="571" type="line" smooth="yes"/>
      <point x="28" y="0" type="line" smooth="yes"/>
      <point x="218" y="0" type="line" smooth="yes"/>
      <point x="218" y="201" type="line" smooth="yes"/>
      <point x="334" y="201" type="line" smooth="yes"/>
      <point x="334" y="334" type="line" smooth="yes"/>
      <point x="218" y="334" type="line" smooth="yes"/>
      <point x="218" y="440" type="line" smooth="yes"/>
      <point x="356" y="440" type="line" smooth="yes"/>
    </contour>
  </outline>
</glyph>
<glyph name="four.dnom" format="2">
  <advance width="328"/>
  <outline>
    <contour>
      <point x="97" y="435" type="line"/>
      <point x="4" y="168" type="line"/>
      <point x="4" y="78" type="line"/>
      <point x="323" y="78" type="line"/>
      <point x="323" y="175" type="line"/>
      <point x="135" y="175" type="line"/>
      <point x="208" y="394" type="line"/>
    </contour>
    <contour>
      <point x="290" y="267" type="line"/>
      <point x="203" y="267" type="line"/>
      <point x="170" y="170" type="line"/>
      <point x="171" y="0" type="line"/>
      <point x="290" y="0" type="line"/>
    </contour>
  </outline>
</glyph>
<glyph name="four.osf" format="2">
  <advance width="491"/>
  <outline>
    <contour>
      <point x="160" y="586" type="line"/>
      <point x="10" y="145" type="line"/>
      <point x="10" y="23" type="line"/>
      <point x="486" y="23" type="line"/>
      <point x="486" y="161" type="line"/>
      <point x="198" y="161" type="line"/>
      <point x="322" y="534" type="line"/>
    </contour>
    <contour>
      <point x="432" y="314" type="line"/>
      <point x="284" y="314" type="line"/>
      <point x="260" y="145" type="line"/>
      <point x="260" y="-112" type="line"/>
      <point x="432" y="-112" type="line"/>
    </contour>
  </outline>
</glyph>
<glyph name="four.tf" format="2">
  <advance width="460"/>
  <outline>
    <contour>
      <point x="148" y="716" type="line"/>
      <point x="-2" y="261" type="line"/>
      <point x="-2" y="136" type="line"/>
      <point x="461" y="136" type="line"/>
      <point x="461" y="277" type="line"/>
      <point x="186" y="277" type="line"/>
      <point x="310" y="664" type="line"/>
    </contour>
    <contour>
      <point x="419" y="437" type="line"/>
      <point x="266" y="437" type="line"/>
      <point x="243" y="261" type="line"/>
      <point x="243" y="0" type="line"/>
      <point x="419" y="0" type="line"/>
    </contour>
  </outline>
</glyph>
<glyph name="gravecomb.case" format="2">
  <anchor x="160" y="696" name="_top"/>
  <anchor x="163" y="978" name="top"/>
  <outline>
    <contour>
      <point x="100" y="967" type="line"/>
      <point x="30" y="836" type="line"/>
      <point x="246" y="748" type="line"/>
      <point x="294" y="838" type="line"/>
    </contour>
  </outline>
</glyph>
<glyph name="i.sc" format="2">
  <advance width="246"/>
  <anchor x="123" y="0" name="bottom"/>
  <anchor x="182" y="0" name="ogonek"/>
  <anchor x="123" y="571" name="top"/>
  <outline>
    <contour>
      <point x="218" y="571" type="line"/>
      <point x="28" y="571" type="line"/>
      <point x="28" y="0" type="line"/>
      <point x="218" y="0" type="line"/>
    </contour>
  </outline>
</glyph>
<glyph name="k.sc" format="2">
  <advance width="516"/>
  <anchor x="260" y="0" name="bottom"/>
  <anchor x="254" y="571" name="top"/>
  <outline>
    <contour>
      <point x="524" y="571" type="line"/>
      <point x="340" y="571" type="line"/>
      <point x="221" y="305" type="line"/>
      <point x="333" y="0" type="line"/>
      <point x="536" y="0" type="line"/>
      <point x="406" y="320" type="line"/>
    </contour>
    <contour>
      <point x="217" y="571" type="line"/>
      <point x="28" y="571" type="line"/>
      <point x="28" y="0" type="line"/>
      <point x="217" y="0" type="line"/>
    </contour>
  </outline>
</glyph>
<glyph name="l.sc" format="2">
  <advance width="398"/>
  <anchor x="203" y="0" name="bottom"/>
  <anchor x="327" y="334" name="center"/>
  <anchor x="122" y="571" name="top"/>
  <anchor x="234" y="571" name="topright"/>
  <outline>
    <contour>
      <point x="217" y="571" type="line"/>
      <point x="28" y="571" type="line"/>
      <point x="28" y="0" type="line"/>
      <point x="378" y="0" type="line"/>
      <point x="396" y="143" type="line"/>
      <point x="217" y="143" type="line"/>
    </contour>
  </outline>
</glyph>
<glyph name="lozenge.tf" format="2">
  <advance width="460"/>
  <outline>
    <contour>
      <point x="329" y="696" type="line"/>
      <point x="128" y="696" type="line"/>
      <point x="0" y="347" type="line"/>
      <point x="128" y="0" type="line"/>
      <point x="329" y="0" type="line"/>
      <point x="459" y="347" type="line"/>
    </contour>
    <contour>
      <point x="229" y="565" type="line"/>
      <point x="286" y="348" type="line"/>
      <point x="229" y="131" type="line"/>
      <point x="173" y="348" type="line"/>
    </contour>
  </outline>
</glyph>
<glyph name="lozenge.tosf" format="2">
  <advance width="460"/>
  <outline>
    <contour>
      <point x="332" y="679" type="line"/>
      <point x="128" y="679" type="line"/>
      <point x="0" y="339" type="line"/>
      <point x="128" y="0" type="line"/>
      <point x="332" y="0" type="line"/>
      <point x="460" y="339" type="line"/>
    </contour>
    <contour>
      <point x="230" y="547" type="line"/>
      <point x="287" y="340" type="line"/>
      <point x="230" y="131" type="line"/>
      <point x="173" y="340" type="line"/>
    </contour>
  </outline>
</glyph>
<glyph name="minus.dnom" format="2">
  <advance width="329"/>
  <outline>
    <contour>
      <point x="33" y="155" type="line"/>
      <point x="296" y="155" type="line"/>
      <point x="296" y="254" type="line"/>
      <point x="33" y="254" type="line"/>
    </contour>
  </outline>
</glyph>
<glyph name="o.sc" format="2">
  <advance width="522"/>
  <anchor x="261" y="0" name="bottom"/>
  <anchor x="370" y="0" name="ogonek"/>
  <anchor x="261" y="571" name="top"/>
  <anchor x="86" y="571" name="topleft"/>
  <anchor x="459" y="571" name="topright"/>
  <outline>
    <contour>
      <point x="261" y="587" type="curve" smooth="yes"/>
      <point x="98" y="587"/>
      <point x="17" y="485"/>
      <point x="17" y="288" type="curve" smooth="yes"/>
      <point x="17" y="82"/>
      <point x="98" y="-18"/>
      <point x="261" y="-18" type="curve" smooth="yes"/>
      <point x="423" y="-18"/>
      <point x="505" y="86"/>
      <point x="505" y="287" type="curve" smooth="yes"/>
      <point x="505" y="489"/>
      <point x="423" y="587"/>
    </contour>
    <contour>
      <point x="261" y="455" type="curve" smooth="yes"/>
      <point x="298" y="455"/>
      <point x="309" y="421"/>
      <point x="309" y="287" type="curve" smooth="yes"/>
      <point x="309" y="149"/>
      <point x="301" y="113"/>
      <point x="261" y="113" type="curve" smooth="yes"/>
      <point x="220" y="113"/>
      <point x="212" y="149"/>
      <point x="212" y="288" type="curve" smooth="yes"/>
      <point x="212" y="421"/>
      <point x="222" y="455"/>
    </contour>
  </outline>
</glyph>
<glyph name="one.dnom" format="2">
  <advance width="328"/>
  <outline>
    <contour>
      <point x="269" y="423" type="line"/>
      <point x="148" y="423" type="line"/>
      <point x="9" y="331" type="line"/>
      <point x="65" y="247" type="line"/>
      <point x="138" y="297" type="line"/>
      <point x="138" y="0" type="line"/>
      <point x="269" y="0" type="line"/>
    </contour>
  </outline>
</glyph>
<glyph name="one.osf" format="2">
  <advance width="399"/>
  <outline>
    <contour>
      <point x="364" y="571" type="line"/>
      <point x="195" y="571" type="line"/>
      <point x="-15" y="429" type="line"/>
      <point x="69" y="310" type="line"/>
      <point x="180" y="391" type="line"/>
      <point x="180" y="0" type="line"/>
      <point x="364" y="0" type="line"/>
    </contour>
  </outline>
</glyph>
<glyph name="one.tf" format="2">
  <advance width="460"/>
  <outline>
    <contour>
      <point x="361" y="696" type="line"/>
      <point x="191" y="696" type="line"/>
      <point x="-15" y="553" type="line"/>
      <point x="69" y="434" type="line"/>
      <point x="177" y="514" type="line"/>
      <point x="177" y="109" type="line"/>
      <point x="361" y="109" type="line"/>
    </contour>
    <contour>
      <point x="456" y="142" type="line"/>
      <point x="54" y="142" type="line"/>
      <point x="54" y="0" type="line"/>
      <point x="456" y="0" type="line"/>
    </contour>
  </outline>
</glyph>
<glyph name="parenleft.dnom" format="2">
  <advance width="328"/>
  <outline>
    <contour>
      <point x="177" y="527" type="line"/>
      <point x="125" y="440"/>
      <point x="73" y="344"/>
      <point x="73" y="194" type="curve"/>
      <point x="73" y="44"/>
      <point x="125" y="-52"/>
      <point x="177" y="-139" type="curve"/>
      <point x="255" y="-92" type="line"/>
      <point x="216" y="-7"/>
      <point x="198" y="80"/>
      <point x="198" y="194" type="curve"/>
      <point x="198" y="308"/>
      <point x="216" y="395"/>
      <point x="255" y="480" type="curve"/>
    </contour>
  </outline>
</glyph>
<glyph name="parenright.dnom" format="2">
  <advance width="328"/>
  <outline>
    <contour>
      <point x="151" y="527" type="curve"/>
      <point x="73" y="480" type="line"/>
      <point x="112" y="395"/>
      <point x="130" y="308"/>
      <point x="130" y="194" type="curve"/>
      <point x="130" y="80"/>
      <point x="112" y="-7"/>
      <point x="73" y="-92" type="curve"/>
      <point x="151" y="-139" type="line"/>
      <point x="203" y="-52"/>
      <point x="255" y="44"/>
      <point x="255" y="194" type="curve"/>
      <point x="255" y="344"/>
      <point x="203" y="440"/>
    </contour>
  </outline>
</glyph>
<glyph name="plus.dnom" format="2">
  <advance width="329"/>
  <outline>
    <contour>
      <point x="218" y="338" type="line"/>
      <point x="111" y="338" type="line"/>
      <point x="111" y="254" type="line"/>
      <point x="33" y="254" type="line"/>
      <point x="33" y="155" type="line"/>
      <point x="111" y="155" type="line"/>
      <point x="111" y="71" type="line"/>
      <point x="218" y="71" type="line"/>
      <point x="218" y="155" type="line"/>
      <point x="296" y="155" type="line"/>
      <point x="296" y="254" type="line"/>
      <point x="218" y="254" type="line"/>
    </contour>
  </outline>
</glyph>
<glyph name="product.tf" format="2">
  <advance width="460"/>
  <outline>
    <contour>
      <point x="470" y="696" type="line"/>
      <point x="-10" y="696" type="line"/>
      <point x="-10" y="562" type="line"/>
      <point x="39" y="562" type="line"/>
      <point x="39" y="-226" type="line"/>
      <point x="201" y="-207" type="line"/>
      <point x="201" y="562" type="line"/>
      <point x="259" y="562" type="line"/>
      <point x="259" y="-226" type="line"/>
      <point x="421" y="-207" type="line"/>
      <point x="421" y="562" type="line"/>
      <point x="470" y="562" type="line"/>
    </contour>
  </outline>
</glyph>
<glyph name="q.sc" format="2">
  <advance width="522"/>
  <anchor x="260" y="0" name="bottom"/>
  <anchor x="260" y="570" name="top"/>
  <outline>
    <contour>
      <point x="261" y="586" type="curve" smooth="yes"/>
      <point x="98" y="586"/>
      <point x="17" y="479"/>
      <point x="17" y="288" type="curve" smooth="yes"/>
      <point x="17" y="88"/>
      <point x="98" y="-15"/>
      <point x="245" y="-15" type="curve" smooth="yes"/>
      <point x="265" y="-15"/>
      <point x="286" y="-13"/>
      <point x="303" y="-9" type="curve"/>
      <point x="378" y="41" type="line"/>
      <point x="441" y="78"/>
      <point x="505" y="145"/>
      <point x="505" y="287" type="curve" smooth="yes"/>
      <point x="505" y="483"/>
      <point x="423" y="586"/>
    </contour>
    <contour>
      <point x="378" y="41" type="curve"/>
      <point x="245" y="-15" type="line"/>
      <point x="341" y="-15"/>
      <point x="409" y="-94"/>
      <point x="443" y="-154" type="curve"/>
      <point x="552" y="-16" type="line"/>
      <point x="502" y="27"/>
      <point x="459" y="41"/>
    </contour>
    <contour>
      <point x="261" y="454" type="curve" smooth="yes"/>
      <point x="300" y="454"/>
      <point x="309" y="418"/>
      <point x="309" y="287" type="curve" smooth="yes"/>
      <point x="309" y="152"/>
      <point x="303" y="114"/>
      <point x="261" y="114" type="curve" smooth="yes"/>
      <point x="218" y="114"/>
      <point x="212" y="152"/>
      <point x="212" y="288" type="curve" smooth="yes"/>
      <point x="212" y="418"/>
      <point x="220" y="454"/>
    </contour>
  </outline>
</glyph>
<glyph name="seven.dnom" format="2">
  <advance width="328"/>
  <outline>
    <contour>
      <point x="299" y="424" type="line"/>
      <point x="28" y="424" type="line"/>
      <point x="28" y="329" type="line"/>
      <point x="172" y="329" type="line"/>
      <point x="52" y="27" type="line"/>
      <point x="168" y="-15" type="line"/>
      <point x="299" y="334" type="line"/>
    </contour>
  </outline>
</glyph>
<glyph name="seven.osf" format="2">
  <advance width="414"/>
  <outline>
    <contour>
      <point x="402" y="571" type="line"/>
      <point x="1" y="571" type="line"/>
      <point x="1" y="431" type="line"/>
      <point x="210" y="431" type="line"/>
      <point x="28" y="-75" type="line"/>
      <point x="199" y="-128" type="line"/>
      <point x="402" y="446" type="line"/>
    </contour>
  </outline>
</glyph>
<glyph name="seven.tf" format="2">
  <advance width="460"/>
  <outline>
    <contour>
      <point x="442" y="696" type="line"/>
      <point x="17" y="696" type="line"/>
      <point x="17" y="556" type="line"/>
      <point x="251" y="556" type="line"/>
      <point x="62" y="32" type="line"/>
      <point x="227" y="-28" type="line"/>
      <point x="442" y="571" type="line"/>
    </contour>
  </outline>
</glyph>
<glyph name="seven.tosf" format="2">
  <advance width="460"/>
  <outline>
    <contour>
      <point x="437" y="571" type="line"/>
      <point x="19" y="571" type="line"/>
      <point x="19" y="431" type="line"/>
      <point x="246" y="431" type="line"/>
      <point x="63" y="-75" type="line"/>
      <point x="233" y="-128" type="line"/>
      <point x="437" y="446" type="line"/>
    </contour>
  </outline>
</glyph>
<glyph name="summation.tf" format="2">
  <advance width="460"/>
  <outline>
    <contour>
      <point x="448" y="696" type="line"/>
      <point x="12" y="696" type="line"/>
      <point x="12" y="565" type="line"/>
      <point x="172" y="349" type="line"/>
      <point x="12" y="132" type="line"/>
      <point x="12" y="0" type="line"/>
      <point x="448" y="0" type="line"/>
      <point x="448" y="139" type="line"/>
      <point x="206" y="139" type="line"/>
      <point x="334" y="317" type="line"/>
      <point x="334" y="385" type="line"/>
      <point x="206" y="557" type="line"/>
      <point x="448" y="557" type="line"/>
    </contour>
  </outline>
</glyph>
<glyph name="v.sc" format="2">
  <advance width="440"/>
  <anchor x="219" y="0" name="bottom"/>
  <anchor x="219" y="571" name="top"/>
  <outline>
    <contour>
      <point x="460" y="571" type="line"/>
      <point x="271" y="571" type="line"/>
      <point x="226" y="125" type="line"/>
      <point x="175" y="571" type="line"/>
      <point x="-20" y="571" type="line"/>
      <point x="98" y="0" type="line"/>
      <point x="349" y="0" type="line"/>
    </contour>
  </outline>
</glyph>
<glyph name="w.sc" format="2">
  <advance width="641"/>
  <anchor x="317" y="0" name="bottom"/>
  <anchor x="323" y="571" name="top"/>
  <outline>
    <contour>
      <point x="641" y="571" type="line"/>
      <point x="459" y="571" type="line"/>
      <point x="442" y="135" type="line"/>
      <point x="421" y="571" type="line"/>
      <point x="225" y="571" type="line"/>
      <point x="195" y="134" type="line"/>
      <point x="187" y="571" type="line"/>
      <point x="0" y="571" type="line"/>
      <point x="52" y="0" type="line"/>
      <point x="296" y="0" type="line"/>
      <point x="319" y="398" type="line"/>
      <point x="341" y="0" type="line"/>
      <point x="584" y="0" type="line"/>
    </contour>
  </outline>
</glyph>
<glyph name="y.sc" format="2">
  <advance width="468"/>
  <anchor x="234" y="0" name="bottom"/>
  <anchor x="237" y="571" name="top"/>
  <outline>
    <contour>
      <point x="486" y="571" type="line"/>
      <point x="291" y="571" type="line"/>
      <point x="237" y="346" type="line"/>
      <point x="183" y="571" type="line"/>
      <point x="-18" y="571" type="line"/>
      <point x="139" y="209" type="line"/>
      <point x="139" y="0" type="line"/>
      <point x="328" y="0" type="line"/>
      <point x="328" y="210" type="line"/>
    </contour>
  </outline>
</glyph>
<glyph name="yen.tf" format="2">
  <advance width="460"/>
  <outline>
    <contour>
      <point x="483" y="696" type="line"/>
      <point x="289" y="696" type="line"/>
      <point x="233" y="405" type="line"/>
      <point x="174" y="696" type="line"/>
      <point x="-24" y="696" type="line"/>
      <point x="137" y="279" type="line"/>
      <point x="137" y="0" type="line"/>
      <point x="324" y="0" type="line"/>
      <point x="324" y="279" type="line"/>
    </contour>
    <contour>
      <point x="424" y="200" type="line"/>
      <point x="40" y="200" type="line"/>
      <point x="40" y="108" type="line"/>
      <point x="424" y="108" type="line"/>
    </contour>
    <contour>
      <point x="424" y="355" type="line"/>
      <point x="40" y="355" type="line"/>
      <point x="40" y="263" type="line"/>
      <point x="424" y="263" type="line"/>
    </contour>
  </outline>
</glyph>
<glyph name="z.sc" format="2">
  <advance width="416"/>
  <anchor x="199" y="0" name="bottom"/>
  <anchor x="211" y="571" name="top"/>
  <outline>
    <contour>
      <point x="404" y="571" type="line"/>
      <point x="20" y="571" type="line"/>
      <point x="20" y="430" type="line"/>
      <point x="194" y="430" type="line"/>
      <point x="3" y="138" type="line"/>
      <point x="3" y="0" type="line"/>
      <point x="395" y="0" type="line"/>
      <point x="413" y="146" type="line"/>
      <point x="210" y="146" type="line"/>
      <point x="404" y="433" type="line"/>
    </contour>
  </outline>
</glyph>
<glyph name="zero.dnom" format="2">
  <advance width="328"/>
  <outline>
    <contour>
      <point x="164" y="435" type="curve" smooth="yes"/>
      <point x="62" y="435"/>
      <point x="3" y="365"/>
      <point x="3" y="211" type="curve" smooth="yes"/>
      <point x="3" y="58"/>
      <point x="62" y="-14"/>
      <point x="164" y="-14" type="curve" smooth="yes"/>
      <point x="265" y="-14"/>
      <point x="324" y="58"/>
      <point x="324" y="211" type="curve" smooth="yes"/>
      <point x="324" y="366"/>
      <point x="265" y="435"/>
    </contour>
    <contour>
      <point x="164" y="335" type="curve" smooth="yes"/>
      <point x="183" y="335"/>
      <point x="191" y="323"/>
      <point x="191" y="211" type="curve" smooth="yes"/>
      <point x="191" y="100"/>
      <point x="183" y="87"/>
      <point x="164" y="87" type="curve" smooth="yes"/>
      <point x="144" y="87"/>
      <point x="137" y="100"/>
      <point x="137" y="211" type="curve" smooth="yes"/>
      <point x="137" y="322"/>
      <point x="143" y="335"/>
    </contour>
  </outline>
</glyph>
<glyph name="zero.tosf" format="2">
  <advance width="460"/>
  <outline>
    <contour>
      <point x="230" y="587" type="curve" smooth="yes"/>
      <point x="68" y="587"/>
      <point x="3" y="473"/>
      <point x="3" y="286" type="curve" smooth="yes"/>
      <point x="3" y="98"/>
      <point x="75" y="-20"/>
      <point x="230" y="-20" type="curve" smooth="yes"/>
      <point x="384" y="-20"/>
      <point x="456" y="98"/>
      <point x="456" y="286" type="curve" smooth="yes"/>
      <point x="456" y="473"/>
      <point x="392" y="587"/>
    </contour>
    <contour>
      <point x="230" y="454" type="curve" smooth="yes"/>
      <point x="266" y="454"/>
      <point x="277" y="432"/>
      <point x="277" y="286" type="curve" smooth="yes"/>
      <point x="277" y="139"/>
      <point x="266" y="113"/>
      <point x="230" y="113" type="curve" smooth="yes"/>
      <point x="193" y="113"/>
      <point x="182" y="139"/>
      <point x="182" y="286" type="curve" smooth="yes"/>
      <point x="182" y="432"/>
      <point x="193" y="454"/>
    </contour>
  </outline>
</glyph>
<glyph name="zero.tosf.zero" format="2">
  <advance width="460"/>
  <outline>
    <contour>
      <point x="230" y="587" type="curve" smooth="yes"/>
      <point x="68" y="587"/>
      <point x="3" y="473"/>
      <point x="3" y="286" type="curve" smooth="yes"/>
      <point x="3" y="98"/>
      <point x="75" y="-20"/>
      <point x="230" y="-20" type="curve" smooth="yes"/>
      <point x="384" y="-20"/>
      <point x="456" y="98"/>
      <point x="456" y="286" type="curve" smooth="yes"/>
      <point x="456" y="473"/>
      <point x="392" y="587"/>
    </contour>
    <contour>
      <point x="230" y="457" type="curve" smooth="yes"/>
      <point x="276" y="457"/>
      <point x="287" y="445"/>
      <point x="287" y="286" type="curve" smooth="yes"/>
      <point x="287" y="136"/>
      <point x="276" y="110"/>
      <point x="230" y="110" type="curve" smooth="yes"/>
      <point x="183" y="110"/>
      <point x="172" y="126"/>
      <point x="172" y="286" type="curve" smooth="yes"/>
      <point x="172" y="435"/>
      <point x="183" y="457"/>
    </contour>
    <contour>
      <point x="259" y="461" type="line"/>
      <point x="135" y="130" type="line"/>
      <point x="185" y="89" type="line"/>
      <point x="309" y="420" type="line"/>
    </contour>
  </outline>
</glyph>
